<svg width="36" height="23" viewBox="0 0 36 23" fill="none" xmlns="http://www.w3.org/2000/svg">
<path opacity="0.7" d="M1.08 0C0.68 0 0.38 0.0999997 0.18 0.299999C-0.02 0.566666 -0.0533333 0.933333 0.08 1.4L7.28 21.6C7.48 22.2667 7.91333 22.6 8.58 22.6H16.98C17.9133 22.6 18.28 22.1667 18.08 21.3L13.48 1.1C13.28 0.366666 12.8467 0 12.18 0H1.08ZM18.78 0C18.38 0 18.08 0.0999997 17.88 0.299999C17.68 0.566666 17.6467 0.933333 17.78 1.4L24.88 21.6C25.08 22.2667 25.5133 22.6 26.18 22.6H34.58C35.4467 22.6 35.78 22.1667 35.58 21.3L31.18 1.1C31.0467 0.366666 30.6133 0 29.88 0H18.78Z" fill="#E8E1D1"/>
</svg>
