<svg width="36" height="23" viewBox="0 0 36 23" fill="none" xmlns="http://www.w3.org/2000/svg">
<path opacity="0.7" d="M34.5563 2.51778e-06C34.9563 2.55275e-06 35.2563 0.100002 35.4563 0.300002C35.6563 0.566669 35.6896 0.933336 35.5563 1.4L28.3563 21.6C28.1562 22.2667 27.7229 22.6 27.0563 22.6H18.6562C17.7229 22.6 17.3563 22.1667 17.5563 21.3L22.1563 1.1C22.3563 0.366667 22.7896 1.4891e-06 23.4563 1.54738e-06L34.5563 2.51778e-06ZM16.8563 9.70393e-07C17.2563 1.00536e-06 17.5563 0.100001 17.7563 0.3C17.9563 0.566667 17.9896 0.933334 17.8563 1.4L10.7562 21.6C10.5562 22.2667 10.1229 22.6 9.45625 22.6L1.05625 22.6C0.189583 22.6 -0.14375 22.1667 0.0562498 21.3L4.45625 1.1C4.58959 0.366666 5.02292 -6.41101e-08 5.75625 0L16.8563 9.70393e-07Z" fill="#E8E1D1"/>
</svg>
