<svg width="42" height="42" viewBox="0 0 42 42" fill="none" xmlns="http://www.w3.org/2000/svg">
<g filter="url(#filter0_d_817_15273)">
<path d="M16.4285 10.3334H11.8571C11.0147 10.3334 10.3333 11.0148 10.3333 11.8572V16.4286C10.3333 17.271 11.0147 17.9525 11.8571 17.9525C12.6994 17.9525 13.3809 17.271 13.3809 16.4286V13.381H16.4285C17.2709 13.381 17.9523 12.6996 17.9523 11.8572C17.9523 11.0148 17.2713 10.3334 16.4285 10.3334ZM30.1428 10.3334H25.5713C24.729 10.3334 24.0475 11.0148 24.0475 11.8572C24.0475 12.6996 24.729 13.381 25.5713 13.381H28.619V16.4286C28.619 17.271 29.3004 17.9525 30.1428 17.9525C30.9852 17.9525 31.6666 17.271 31.6666 16.4286V11.8572C31.6666 11.0148 30.9856 10.3334 30.1428 10.3334ZM16.4285 28.6191H13.3809V25.5715C13.3809 24.7291 12.6994 24.0477 11.8571 24.0477C11.0147 24.0477 10.3333 24.7291 10.3333 25.5715V30.1429C10.3333 30.9853 11.0147 31.6667 11.8571 31.6667H16.4285C17.2709 31.6667 17.9523 30.9853 17.9523 30.1429C17.9523 29.3005 17.2713 28.6191 16.4285 28.6191ZM30.1428 24.0477C29.3004 24.0477 28.619 24.7291 28.619 25.5715V28.6191H25.5713C24.729 28.6191 24.0475 29.3005 24.0475 30.1429C24.0475 30.9853 24.729 31.6667 25.5713 31.6667H30.1428C30.9852 31.6667 31.6666 30.9853 31.6666 30.1429V25.5715C31.6666 24.7286 30.9856 24.0477 30.1428 24.0477Z" fill="white"/>
</g>
<defs>
<filter id="filter0_d_817_15273" x="0.333252" y="0.333405" width="41.3333" height="41.3333" filterUnits="userSpaceOnUse" color-interpolation-filters="sRGB">
<feFlood flood-opacity="0" result="BackgroundImageFix"/>
<feColorMatrix in="SourceAlpha" type="matrix" values="0 0 0 0 0 0 0 0 0 0 0 0 0 0 0 0 0 0 127 0" result="hardAlpha"/>
<feOffset/>
<feGaussianBlur stdDeviation="5"/>
<feComposite in2="hardAlpha" operator="out"/>
<feColorMatrix type="matrix" values="0 0 0 0 0.028125 0 0 0 0 0.113125 0 0 0 0 0.1875 0 0 0 0.4 0"/>
<feBlend mode="normal" in2="BackgroundImageFix" result="effect1_dropShadow_817_15273"/>
<feBlend mode="normal" in="SourceGraphic" in2="effect1_dropShadow_817_15273" result="shape"/>
</filter>
</defs>
</svg>
