<svg width="42" height="42" viewBox="0 0 42 42" fill="none" xmlns="http://www.w3.org/2000/svg">
<rect x="1" y="1" width="40" height="40" rx="20" fill="#071D30"/>
<g filter="url(#filter0_d_817_7355)">
<path d="M16.4287 10.3334H11.8573C11.0149 10.3334 10.3335 11.0148 10.3335 11.8572V16.4286C10.3335 17.271 11.0149 17.9525 11.8573 17.9525C12.6997 17.9525 13.3811 17.271 13.3811 16.4286V13.381H16.4287C17.2711 13.381 17.9525 12.6996 17.9525 11.8572C17.9525 11.0148 17.2716 10.3334 16.4287 10.3334ZM30.143 10.3334H25.5716C24.7292 10.3334 24.0478 11.0148 24.0478 11.8572C24.0478 12.6996 24.7292 13.381 25.5716 13.381H28.6192V16.4286C28.6192 17.271 29.3006 17.9525 30.143 17.9525C30.9854 17.9525 31.6668 17.271 31.6668 16.4286V11.8572C31.6668 11.0148 30.9859 10.3334 30.143 10.3334ZM16.4287 28.6191H13.3811V25.5715C13.3811 24.7291 12.6997 24.0477 11.8573 24.0477C11.0149 24.0477 10.3335 24.7291 10.3335 25.5715V30.1429C10.3335 30.9853 11.0149 31.6667 11.8573 31.6667H16.4287C17.2711 31.6667 17.9525 30.9853 17.9525 30.1429C17.9525 29.3005 17.2716 28.6191 16.4287 28.6191ZM30.143 24.0477C29.3006 24.0477 28.6192 24.7291 28.6192 25.5715V28.6191H25.5716C24.7292 28.6191 24.0478 29.3005 24.0478 30.1429C24.0478 30.9853 24.7292 31.6667 25.5716 31.6667H30.143C30.9854 31.6667 31.6668 30.9853 31.6668 30.1429V25.5715C31.6668 24.7286 30.9859 24.0477 30.143 24.0477Z" fill="white"/>
</g>
<defs>
<filter id="filter0_d_817_7355" x="0.333496" y="0.333405" width="41.3335" height="41.3333" filterUnits="userSpaceOnUse" color-interpolation-filters="sRGB">
<feFlood flood-opacity="0" result="BackgroundImageFix"/>
<feColorMatrix in="SourceAlpha" type="matrix" values="0 0 0 0 0 0 0 0 0 0 0 0 0 0 0 0 0 0 127 0" result="hardAlpha"/>
<feOffset/>
<feGaussianBlur stdDeviation="5"/>
<feComposite in2="hardAlpha" operator="out"/>
<feColorMatrix type="matrix" values="0 0 0 0 0.028125 0 0 0 0 0.113125 0 0 0 0 0.1875 0 0 0 0.4 0"/>
<feBlend mode="normal" in2="BackgroundImageFix" result="effect1_dropShadow_817_7355"/>
<feBlend mode="normal" in="SourceGraphic" in2="effect1_dropShadow_817_7355" result="shape"/>
</filter>
</defs>
</svg>
