<svg width="26" height="26" viewBox="0 0 26 26" fill="none" xmlns="http://www.w3.org/2000/svg">
<path d="M13.25 6.63403C16.6953 6.63403 19.5391 9.47778 19.5391 12.9231C19.5391 16.4231 16.6953 19.2122 13.25 19.2122C9.75 19.2122 6.96094 16.4231 6.96094 12.9231C6.96094 9.47778 9.75 6.63403 13.25 6.63403ZM13.25 17.0247C15.4922 17.0247 17.2969 15.22 17.2969 12.9231C17.2969 10.6809 15.4922 8.87622 13.25 8.87622C10.9531 8.87622 9.14844 10.6809 9.14844 12.9231C9.14844 15.22 11.0078 17.0247 13.25 17.0247ZM21.2344 6.41528C21.2344 7.2356 20.5781 7.89185 19.7578 7.89185C18.9375 7.89185 18.2812 7.2356 18.2812 6.41528C18.2812 5.59497 18.9375 4.93872 19.7578 4.93872C20.5781 4.93872 21.2344 5.59497 21.2344 6.41528ZM25.3906 7.89185C25.5 9.91528 25.5 15.9856 25.3906 18.009C25.2812 19.9778 24.8438 21.6731 23.4219 23.1497C22 24.5715 20.25 25.009 18.2812 25.1184C16.2578 25.2278 10.1875 25.2278 8.16406 25.1184C6.19531 25.009 4.5 24.5715 3.02344 23.1497C1.60156 21.6731 1.16406 19.9778 1.05469 18.009C0.945312 15.9856 0.945312 9.91528 1.05469 7.89185C1.16406 5.9231 1.60156 4.1731 3.02344 2.75122C4.5 1.32935 6.19531 0.891846 8.16406 0.782471C10.1875 0.673096 16.2578 0.673096 18.2812 0.782471C20.25 0.891846 22 1.32935 23.4219 2.75122C24.8438 4.1731 25.2812 5.9231 25.3906 7.89185ZM22.7656 20.1418C23.4219 18.5559 23.2578 14.7278 23.2578 12.9231C23.2578 11.1731 23.4219 7.34497 22.7656 5.70435C22.3281 4.66528 21.5078 3.79028 20.4688 3.40747C18.8281 2.75122 15 2.91528 13.25 2.91528C11.4453 2.91528 7.61719 2.75122 6.03125 3.40747C4.9375 3.84497 4.11719 4.66528 3.67969 5.70435C3.02344 7.34497 3.1875 11.1731 3.1875 12.9231C3.1875 14.7278 3.02344 18.5559 3.67969 20.1418C4.11719 21.2356 4.9375 22.0559 6.03125 22.4934C7.61719 23.1497 11.4453 22.9856 13.25 22.9856C15 22.9856 18.8281 23.1497 20.4688 22.4934C21.5078 22.0559 22.3828 21.2356 22.7656 20.1418Z" fill="white"/>
</svg>
