<svg width="443" height="186" viewBox="0 0 443 186" fill="none" xmlns="http://www.w3.org/2000/svg">
<path d="M255.008 68.5883H269.519V82.1149C268.732 82.9675 267.715 83.8036 266.469 84.6234C265.223 85.4105 263.781 86.0662 262.14 86.591C260.534 87.0828 258.763 87.3288 256.829 87.3288C254.336 87.3288 252.041 86.886 249.942 86.0007C247.844 85.0825 246.007 83.8365 244.433 82.2624C242.859 80.6884 241.629 78.8685 240.744 76.8026C239.892 74.7039 239.465 72.4742 239.465 70.1132C239.465 67.7522 239.892 65.5386 240.744 63.4728C241.629 61.3742 242.859 59.5378 244.433 57.9638C246.007 56.3899 247.844 55.1601 249.942 54.2747C252.041 53.3565 254.336 52.8975 256.829 52.8975C259.222 52.8975 261.173 53.2255 262.681 53.8812C264.223 54.537 265.568 55.3897 266.715 56.4389V61.3086C265.993 60.7838 265.174 60.21 264.255 59.587C263.37 58.964 262.321 58.4229 261.108 57.9638C259.928 57.472 258.501 57.226 256.829 57.226C254.369 57.226 252.173 57.7835 250.237 58.8984C248.302 60.0133 246.777 61.5544 245.663 63.522C244.548 65.4568 243.991 67.6538 243.991 70.1132C243.991 72.5725 244.548 74.7696 245.663 76.7042C246.777 78.6389 248.302 80.1801 250.237 81.3279C252.173 82.4429 254.369 83.0002 256.829 83.0002C258.501 83.0002 259.845 82.8363 260.862 82.5084C261.878 82.1477 262.681 81.7542 263.271 81.3279C263.862 80.8688 264.338 80.4916 264.698 80.1966L264.747 72.5233H255.008V68.5883Z" fill="white"/>
<path d="M279.7 51.1748V86.5898H275.666V51.1748H279.7Z" fill="white"/>
<path d="M299.179 61.5059C301.67 61.5059 303.884 62.0962 305.818 63.2767C307.753 64.4572 309.262 66.0312 310.344 67.9986C311.458 69.9662 312.017 72.1141 312.017 74.4422C312.017 76.7705 311.458 78.9183 310.344 80.8858C309.262 82.8205 307.753 84.3781 305.818 85.5585C303.884 86.739 301.67 87.3294 299.179 87.3294C296.686 87.3294 294.472 86.739 292.538 85.5585C290.603 84.3781 289.078 82.8205 287.963 80.8858C286.882 78.9183 286.341 76.7705 286.341 74.4422C286.341 72.1141 286.882 69.9662 287.963 67.9986C289.078 66.0312 290.603 64.4572 292.538 63.2767C294.472 62.0962 296.686 61.5059 299.179 61.5059ZM299.179 65.4409C297.44 65.4409 295.915 65.8673 294.604 66.7198C293.292 67.5395 292.276 68.6381 291.554 70.0154C290.865 71.3598 290.521 72.8355 290.521 74.4422C290.521 76.0162 290.865 77.4919 291.554 78.8691C292.276 80.2136 293.292 81.312 294.604 82.1647C295.915 82.9844 297.44 83.3943 299.179 83.3943C300.948 83.3943 302.473 82.9844 303.752 82.1647C305.065 81.312 306.064 80.2136 306.753 78.8691C307.475 77.4919 307.835 76.0162 307.835 74.4422C307.835 72.8355 307.475 71.3598 306.753 70.0154C306.064 68.6381 305.065 67.5395 303.752 66.7198C302.473 65.8673 300.948 65.4409 299.179 65.4409Z" fill="white"/>
<path d="M330.756 61.5041C333.019 61.5041 335.036 62.0452 336.807 63.1273C338.61 64.1767 340.021 65.6851 341.036 67.6526C342.085 69.6201 342.61 71.9647 342.61 74.6864C342.61 77.1786 342.085 79.3756 341.036 81.2775C340.021 83.1794 338.643 84.6714 336.905 85.7535C335.2 86.8029 333.281 87.3276 331.15 87.3276C329.281 87.3276 327.608 86.8356 326.132 85.8519C324.69 84.8682 323.542 83.7205 322.69 82.4088V86.5898H318.656V51.1748H322.69V65.2915C323.739 64.111 324.985 63.1928 326.427 62.5371C327.903 61.8484 329.346 61.5041 330.756 61.5041ZM330.018 65.4883C328.511 65.4883 327.183 65.849 326.034 66.5704C324.886 67.2591 323.788 68.2428 322.739 69.5217L322.69 74.2436C322.69 75.9816 323.017 77.5393 323.674 78.9166C324.363 80.2938 325.296 81.3759 326.477 82.1629C327.69 82.9498 329.035 83.3434 330.51 83.3434C332.118 83.3434 333.511 82.9498 334.692 82.1629C335.872 81.3759 336.79 80.3265 337.447 79.0149C338.102 77.7032 338.429 76.2604 338.429 74.6864C338.429 73.0796 338.085 71.5875 337.397 70.2104C336.741 68.8003 335.79 67.669 334.544 66.8163C333.297 65.931 331.789 65.4883 330.018 65.4883Z" fill="white"/>
<path d="M359.384 61.5059C360.794 61.5059 362.22 61.8502 363.663 62.5389C365.138 63.1946 366.402 64.1128 367.451 65.2933V61.9978H371.484V86.5916H367.451V82.4106C366.598 83.7223 365.434 84.87 363.958 85.8537C362.515 86.8374 360.86 87.3294 358.991 87.3294C356.891 87.3294 354.973 86.8047 353.235 85.7553C351.497 84.6732 350.104 83.1812 349.055 81.2793C348.038 79.3774 347.53 77.1804 347.53 74.6882C347.53 71.9665 348.038 69.6219 349.055 67.6544C350.104 65.6868 351.531 64.1785 353.334 63.1291C355.138 62.047 357.155 61.5059 359.384 61.5059ZM360.122 65.4409C358.351 65.4409 356.842 65.8836 355.596 66.7689C354.351 67.6544 353.383 68.8021 352.694 70.2122C352.039 71.5893 351.71 73.0814 351.71 74.6882C351.71 76.2622 352.039 77.7214 352.694 79.0659C353.351 80.3775 354.268 81.4269 355.449 82.2138C356.663 83.0008 358.056 83.3943 359.63 83.3943C361.138 83.3943 362.483 83.0008 363.663 82.2138C364.843 81.4269 365.778 80.3448 366.467 78.9675C367.155 77.5574 367.484 75.9834 367.451 74.2454L367.401 69.5235C366.386 68.2446 365.286 67.2445 364.105 66.523C362.958 65.8016 361.63 65.4409 360.122 65.4409Z" fill="white"/>
<path d="M383.879 51.1748V86.5898H379.846V51.1748H383.879Z" fill="white"/>
<path d="M255.008 115.162H269.519V128.689C268.732 129.542 267.715 130.378 266.469 131.198C265.223 131.985 263.781 132.64 262.14 133.165C260.534 133.657 258.763 133.903 256.829 133.903C254.336 133.903 252.041 133.46 249.942 132.575C247.844 131.657 246.007 130.411 244.433 128.837C242.859 127.263 241.629 125.443 240.744 123.377C239.892 121.278 239.465 119.048 239.465 116.687C239.465 114.326 239.892 112.113 240.744 110.047C241.629 107.948 242.859 106.112 244.433 104.538C246.007 102.964 247.844 101.734 249.942 100.849C252.041 99.9308 254.336 99.4717 256.829 99.4717C259.222 99.4717 261.173 99.7995 262.681 100.455C264.223 101.111 265.568 101.964 266.715 103.013V107.883C265.993 107.358 265.174 106.784 264.255 106.161C263.37 105.538 262.321 104.997 261.108 104.538C259.928 104.046 258.501 103.8 256.829 103.8C254.369 103.8 252.173 104.358 250.237 105.473C248.302 106.587 246.777 108.129 245.663 110.096C244.548 112.031 243.991 114.228 243.991 116.687C243.991 119.147 244.548 121.344 245.663 123.278C246.777 125.213 248.302 126.754 250.237 127.902C252.173 129.017 254.369 129.574 256.829 129.574C258.501 129.574 259.845 129.41 260.862 129.082C261.878 128.722 262.681 128.328 263.271 127.902C263.862 127.443 264.338 127.066 264.698 126.771L264.747 119.097H255.008V115.162Z" fill="white"/>
<path d="M279.7 108.571V113.49C280.65 111.85 281.799 110.538 283.143 109.555C284.487 108.571 285.865 108.079 287.274 108.079C288.226 108.079 289.078 108.243 289.832 108.571V113.244C288.783 112.621 287.734 112.309 286.685 112.309C285.012 112.309 283.651 112.899 282.602 114.08C281.585 115.26 280.618 116.671 279.7 118.31V133.165H275.666V108.571H279.7Z" fill="white"/>
<path d="M306.114 108.079C308.606 108.079 310.82 108.669 312.754 109.85C314.69 111.03 316.197 112.604 317.28 114.572C318.395 116.539 318.952 118.687 318.952 121.015C318.952 123.344 318.395 125.491 317.28 127.459C316.197 129.394 314.69 130.951 312.754 132.132C310.82 133.312 308.606 133.902 306.114 133.902C303.623 133.902 301.409 133.312 299.475 132.132C297.539 130.951 296.014 129.394 294.9 127.459C293.817 125.491 293.276 123.344 293.276 121.015C293.276 118.687 293.817 116.539 294.9 114.572C296.014 112.604 297.539 111.03 299.475 109.85C301.409 108.669 303.623 108.079 306.114 108.079ZM306.114 112.014C304.377 112.014 302.852 112.44 301.539 113.293C300.228 114.113 299.211 115.211 298.491 116.589C297.802 117.933 297.458 119.409 297.458 121.015C297.458 122.589 297.802 124.065 298.491 125.442C299.211 126.787 300.228 127.885 301.539 128.738C302.852 129.558 304.377 129.968 306.114 129.968C307.885 129.968 309.41 129.558 310.689 128.738C312 127.885 313 126.787 313.689 125.442C314.411 124.065 314.771 122.589 314.771 121.015C314.771 119.409 314.411 117.933 313.689 116.589C313 115.211 312 114.113 310.689 113.293C309.41 112.44 307.885 112.014 306.114 112.014Z" fill="white"/>
<path d="M345.71 108.57V123.13C345.71 125.294 345.251 127.163 344.332 128.737C343.413 130.311 342.168 131.524 340.594 132.377C339.019 133.229 337.25 133.656 335.282 133.656C333.314 133.656 331.543 133.229 329.969 132.377C328.395 131.524 327.149 130.311 326.231 128.737C325.313 127.163 324.854 125.294 324.854 123.13V108.57H329.035V123.13C329.035 125.261 329.658 126.901 330.904 128.048C332.183 129.163 333.641 129.721 335.282 129.721C336.921 129.721 338.364 129.163 339.61 128.048C340.889 126.901 341.528 125.261 341.528 123.13V108.57H345.71Z" fill="white"/>
<path d="M365.828 108.079C367.959 108.079 369.877 108.604 371.583 109.653C373.321 110.67 374.698 112.113 375.714 113.982C376.764 115.818 377.288 117.982 377.288 120.474C377.288 123.163 376.764 125.524 375.714 127.557C374.698 129.558 373.288 131.115 371.485 132.23C369.714 133.345 367.697 133.902 365.434 133.902C364.025 133.902 362.582 133.525 361.106 132.771C359.663 132.017 358.417 131.05 357.368 129.869V144.969H353.334V108.571H357.368V112.752C358.22 111.44 359.367 110.342 360.811 109.456C362.287 108.538 363.958 108.079 365.828 108.079ZM365.188 112.014C363.712 112.014 362.368 112.391 361.156 113.145C359.975 113.9 359.04 114.949 358.352 116.293C357.696 117.605 357.368 119.146 357.368 120.917L357.417 125.639C358.466 126.918 359.564 127.967 360.713 128.787C361.86 129.574 363.188 129.968 364.696 129.968C366.467 129.968 367.976 129.508 369.222 128.59C370.468 127.672 371.418 126.492 372.075 125.049C372.764 123.573 373.108 122.048 373.108 120.474C373.108 118.868 372.78 117.441 372.124 116.195C371.467 114.916 370.55 113.9 369.369 113.145C368.189 112.391 366.795 112.014 365.188 112.014Z" fill="white"/>
<path d="M47.5204 129.715V84.1764C47.5204 82.2711 49.0649 80.7266 50.9703 80.7266H85.1239" stroke="white" stroke-width="11.7672" stroke-linecap="round"/>
<path d="M42.7783 56.2334H86.8233C100.33 56.2334 111.28 67.183 111.28 80.69C111.28 94.0172 100.609 104.891 87.2847 105.142L76.8417 105.339C74.9622 105.375 73.457 106.909 73.457 108.789V129.715" stroke="white" stroke-width="11.7672" stroke-linecap="round"/>
<path d="M204.436 56.2334H164.931C151.238 56.2334 140.137 67.3345 140.137 81.0285C140.137 94.7224 151.238 105.824 164.932 105.824H177.329" stroke="white" stroke-width="11.7672" stroke-linecap="round"/>
<path d="M121.435 130.405H177.538C191.233 130.405 202.334 119.303 202.334 105.61C202.334 91.9155 191.233 80.8145 177.538 80.8145H165.142" stroke="white" stroke-width="11.7672" stroke-linecap="round"/>
<path d="M97.9769 135.58C101.216 135.58 103.842 132.954 103.842 129.715C103.842 126.476 101.216 123.851 97.9769 123.851C94.7379 123.851 92.1122 126.476 92.1122 129.715C92.1122 132.954 94.7379 135.58 97.9769 135.58Z" fill="white"/>
<path d="M220.791 135.58C224.03 135.58 226.656 132.954 226.656 129.715C226.656 126.476 224.03 123.851 220.791 123.851C217.552 123.851 214.926 126.476 214.926 129.715C214.926 132.954 217.552 135.58 220.791 135.58Z" fill="white"/>
</svg>
