<svg width="70" height="69" viewBox="0 0 70 69" fill="none" xmlns="http://www.w3.org/2000/svg">
<rect width="69.2794" height="69" rx="34.5" fill="#071D30" fill-opacity="0.1"/>
<path d="M38.1231 21.9079C38.0025 22.3525 37.7999 22.7577 37.569 23.1541C36.6696 24.6975 35.7805 26.2472 34.8874 27.7953C34.8566 27.8489 34.8259 27.9033 34.7762 27.9908C34.9496 28.016 35.1081 28.0349 35.2642 28.0633C36.3803 28.2651 37.2056 28.865 37.6636 29.9062C37.8315 30.2877 37.8929 30.7157 38.0049 31.1288C40.7361 30.8829 41.9705 33.1293 41.6608 34.9131C41.8602 34.9336 42.0588 34.9581 42.2583 34.973C43.2065 35.0455 43.9419 35.4917 44.4882 36.2563C44.8074 36.7032 44.9761 37.2045 45.0423 37.7547C45.1338 38.517 44.9477 39.1996 44.5702 39.8507C43.4832 41.7259 42.4009 43.6043 41.3171 45.4819C40.2892 47.2633 38.8672 48.6254 37.0243 49.5484C36.1588 49.9819 35.3028 50.4328 34.4412 50.8742C33.988 51.1067 33.6695 51.0074 33.3881 50.6543C33.0405 50.2184 33.1989 49.6982 33.6916 49.4357C34.1543 49.1882 34.6249 48.9564 35.0907 48.716C35.8955 48.3022 36.7145 47.9136 37.4436 47.3642C38.4156 46.6319 39.2172 45.7506 39.8265 44.6968C40.9427 42.7664 42.0557 40.8336 43.1726 38.9032C43.6251 38.1213 43.3736 37.0343 42.5199 36.6339C41.749 36.2728 40.9293 36.5093 40.48 37.1793C40.32 37.4174 40.1804 37.6704 40.0433 37.9226C39.847 38.2829 39.5404 38.4271 39.1534 38.3443C38.8373 38.2766 38.6166 38.0582 38.5196 37.7453C38.451 37.5222 38.5409 37.3188 38.652 37.1257C39.0367 36.4604 39.4198 35.7944 39.8052 35.1299C39.9645 34.8556 40.0512 34.5592 40.0417 34.2447C40.0157 33.3879 39.378 32.8267 38.7411 32.7092C38.0671 32.5847 37.3577 32.937 37.044 33.499C36.7941 33.946 36.5348 34.3882 36.2786 34.8319C36.1178 35.1102 35.8932 35.282 35.5558 35.2765C34.9646 35.2663 34.58 34.6609 34.8385 34.1328C34.9425 33.9199 35.071 33.7189 35.1901 33.5132C35.4864 32.9985 35.7899 32.4885 36.0768 31.969C36.4646 31.2675 36.2621 30.2885 35.5747 29.8471C34.8755 29.3986 33.8138 29.5397 33.3408 30.3185C33.0563 30.7883 32.7891 31.2699 32.5108 31.7436C32.38 31.9667 32.2073 32.1172 31.9307 32.1677C31.3915 32.267 30.8665 31.7231 31.0202 31.1934C31.0526 31.0815 31.1093 30.9735 31.1676 30.8718C32.8529 27.9498 34.5366 25.0262 36.2298 22.1089C36.5041 21.636 36.5876 21.1575 36.4394 20.631C36.3031 20.1486 35.7978 19.6875 35.3099 19.6228C34.5082 19.5164 33.9612 19.786 33.5529 20.4923C31.0384 24.8473 28.5239 29.2023 26.0101 33.5581C25.8627 33.8135 25.7287 34.08 25.4079 34.1604C25.0595 34.2479 24.775 34.1217 24.5535 33.8663C24.3154 33.592 24.2847 33.3627 24.4581 33.0552C24.8885 32.2938 25.3283 31.5379 25.7642 30.7796C25.7973 30.7228 25.8281 30.6645 25.8328 30.5746C25.6144 30.6566 25.3969 30.7386 25.1785 30.8206C24.9224 30.9175 24.6678 31.0176 24.4108 31.1122C23.8046 31.3361 23.4854 31.8075 23.3143 32.3971C23.1102 33.101 22.9068 33.8056 22.7287 34.5166C22.6499 34.8304 22.6286 35.1591 22.5939 35.4822C22.5679 35.7226 22.5364 35.967 22.5553 36.2058C22.5931 36.678 22.6585 37.1486 22.724 37.6184C22.7965 38.1347 22.8808 38.6494 22.9628 39.1641C23.0156 39.4967 23.0755 39.8278 23.1299 40.1597C23.2135 40.6696 23.2931 41.1796 23.3774 41.6888C23.4586 42.1839 23.5532 42.6773 23.6202 43.1747C23.6533 43.4206 23.6698 43.6768 23.6367 43.9211C23.5855 44.2979 23.1606 44.4666 22.8485 44.469C22.5513 44.4713 22.2203 44.2041 22.1438 43.8888C22.0768 43.6153 22.039 43.3347 21.9932 43.0572C21.9097 42.5472 21.8317 42.0372 21.7497 41.5273C21.6677 41.0181 21.5873 40.5096 21.5022 40.0012C21.4202 39.5109 21.3288 39.0222 21.2499 38.5312C21.1782 38.0874 21.0883 37.6444 21.0584 37.1974C21.0174 36.5763 20.9685 35.9473 21.0269 35.3317C21.086 34.7058 21.2555 34.0878 21.4029 33.4722C21.529 32.9457 21.6984 32.4286 21.838 31.9052C22.1336 30.7977 22.8028 30.0252 23.8779 29.6177C24.9137 29.2252 25.9518 28.8413 26.9876 28.4488C27.0632 28.4204 27.1507 28.3692 27.1894 28.3029C28.4135 26.1897 29.6321 24.0725 30.8516 21.9568C30.8902 21.8945 30.9304 21.8323 30.9658 21.7684C31.237 21.29 31.5074 20.8107 31.7777 20.3322C31.922 20.0918 32.0678 19.853 32.2097 19.6118C32.6905 18.7952 33.3881 18.2576 34.3159 18.0708C35.8033 17.7713 37.2616 18.4302 37.9229 19.8979C37.9828 20.0304 38.0269 20.1707 38.0782 20.307C38.213 20.8375 38.2287 21.3719 38.12 21.9087L38.1231 21.9079Z" fill="#071D30"/>
<path d="M38.1231 21.908C38.2319 21.3712 38.2161 20.8368 38.0813 20.3063C39.5443 20.3047 41.0081 20.3016 42.4711 20.3008C43.5281 20.3 44.5851 20.3008 45.6414 20.3008C45.6903 20.3008 45.7384 20.3008 45.7935 20.3008C45.4538 19.9658 45.1235 19.6395 44.809 19.3289C45.2102 18.9269 45.5752 18.5627 45.9535 18.1836C46.9113 19.1665 47.891 20.1723 48.8771 21.1836C48.8409 21.2294 48.8204 21.2601 48.7952 21.2853C48.215 21.8804 47.6333 22.474 47.0531 23.0691C46.7221 23.4088 46.3902 23.7486 46.0655 24.0946C45.9638 24.2026 45.8952 24.2231 45.7801 24.1041C45.464 23.7754 45.1353 23.4585 44.7956 23.1219C45.1629 22.7246 45.5208 22.3368 45.9133 21.912C45.8109 21.912 45.747 21.912 45.684 21.912C43.2325 21.912 40.7811 21.912 38.3296 21.912C38.2611 21.912 38.1925 21.9096 38.1231 21.908Z" fill="#071D30" fill-opacity="0.5"/>
<path d="M31.7809 20.3308C31.5105 20.8092 31.2401 21.2885 30.969 21.7669C30.9327 21.8308 30.8925 21.8923 30.8547 21.9553C30.7845 21.9403 30.7152 21.9143 30.645 21.9135C30.2217 21.9096 29.7984 21.9112 29.361 21.9112V20.3197C29.4012 20.3126 29.4422 20.3 29.4831 20.3C30.1949 20.2984 30.9067 20.2984 31.6177 20.3C31.6721 20.3 31.7265 20.3197 31.7809 20.33V20.3308Z" fill="#071D30" fill-opacity="0.5"/>
<path d="M28.5459 20.3174V21.8986H26.9591V20.3174H28.5459Z" fill="#071D30" fill-opacity="0.5"/>
<path d="M26.1528 21.9042H25.3322C25.3322 21.7039 25.3322 21.5132 25.3322 21.3217C25.3322 21.0339 25.3378 20.7462 25.3299 20.4593C25.3267 20.3356 25.3693 20.2938 25.4915 20.2993C25.672 20.308 25.8541 20.2954 26.0346 20.3064C26.0756 20.3088 26.1473 20.3702 26.1481 20.4057C26.156 20.8984 26.1528 21.391 26.1528 21.9042Z" fill="#071D30" fill-opacity="0.5"/>
</svg>
