<svg width="28" height="24" viewBox="0 0 28 24" fill="none" xmlns="http://www.w3.org/2000/svg">
<path d="M25.1016 6.2356C25.1016 6.50903 25.1016 6.72778 25.1016 7.00122C25.1016 14.6028 19.3594 23.2981 8.80469 23.2981C5.52344 23.2981 2.51562 22.3684 0 20.7278C0.4375 20.7825 0.875 20.8372 1.36719 20.8372C4.04688 20.8372 6.50781 19.9075 8.47656 18.3762C5.96094 18.3215 3.82812 16.6809 3.11719 14.384C3.5 14.4387 3.82812 14.4934 4.21094 14.4934C4.70312 14.4934 5.25 14.384 5.6875 14.2747C3.0625 13.7278 1.09375 11.4309 1.09375 8.64185V8.58716C1.85938 9.02466 2.78906 9.24341 3.71875 9.2981C2.13281 8.25903 1.14844 6.50903 1.14844 4.54028C1.14844 3.44653 1.42188 2.46216 1.91406 1.64185C4.75781 5.08716 9.02344 7.38403 13.7812 7.65747C13.6719 7.21997 13.6172 6.78247 13.6172 6.34497C13.6172 3.1731 16.1875 0.602783 19.3594 0.602783C21 0.602783 22.4766 1.25903 23.5703 2.40747C24.8281 2.13403 26.0859 1.64185 27.1797 0.985596C26.7422 2.35278 25.8672 3.44653 24.6641 4.15747C25.8125 4.0481 26.9609 3.71997 27.9453 3.28247C27.1797 4.43091 26.1953 5.41528 25.1016 6.2356Z" fill="white"/>
</svg>
