<?xml version="1.0" standalone="no"?>
<!DOCTYPE svg PUBLIC "-//W3C//DTD SVG 20010904//EN"
 "http://www.w3.org/TR/2001/REC-SVG-20010904/DTD/svg10.dtd">
<svg version="1.0" xmlns="http://www.w3.org/2000/svg"
 width="676.000000pt" height="676.000000pt" viewBox="0 0 676.000000 676.000000"
 preserveAspectRatio="xMidYMid meet">
<metadata>
Created by potrace 1.14, written by Peter Selinger 2001-2017
</metadata>
<g transform="translate(0.000000,676.000000) scale(0.100000,-0.100000)"
fill="#000000" stroke="none">
<path d="M3410 6026 c-73 -194 -111 -475 -91 -683 17 -175 81 -438 106 -438
14 0 63 164 84 282 47 264 33 499 -45 763 -30 100 -39 113 -54 76z"/>
<path d="M1767 5603 c-15 -26 -17 -116 -3 -182 30 -141 103 -221 299 -322 228
-117 326 -191 381 -289 22 -39 26 -42 33 -25 14 34 7 187 -11 234 -40 109
-129 188 -316 281 -58 29 -129 68 -159 87 -73 47 -169 139 -192 186 -20 38
-25 42 -32 30z"/>
<path d="M4980 5600 c0 -16 -52 -90 -91 -129 -48 -47 -145 -109 -274 -174
-179 -89 -251 -152 -302 -264 -23 -49 -27 -72 -27 -150 -1 -111 13 -135 42
-77 51 100 148 175 382 295 195 100 275 191 300 340 11 71 2 160 -18 167 -6 2
-12 -2 -12 -8z"/>
<path d="M1622 5378 c6 -100 46 -184 121 -255 69 -65 139 -100 307 -152 160
-50 280 -106 334 -155 21 -20 40 -36 43 -36 10 0 -29 59 -61 92 -47 49 -96 76
-236 133 -274 112 -369 191 -402 334 -9 42 -17 55 -37 63 -15 5 -37 19 -50 31
l-24 22 5 -77z"/>
<path d="M5129 5433 c-8 -9 -28 -22 -46 -29 -27 -12 -33 -21 -42 -66 -14 -65
-65 -144 -123 -191 -53 -43 -116 -75 -279 -141 -69 -29 -146 -64 -172 -79 -43
-26 -136 -131 -125 -142 3 -3 23 11 44 31 53 49 173 104 334 154 167 52 238
87 307 153 74 70 115 155 121 252 2 41 2 75 0 75 -3 0 -12 -7 -19 -17z"/>
<path d="M536 4973 c-3 -4 -6 -25 -6 -47 0 -87 101 -206 209 -247 79 -29 148
-39 286 -39 209 -1 329 -27 393 -88 19 -18 38 -30 41 -26 13 13 3 92 -18 132
-71 139 -211 201 -451 202 -218 0 -359 31 -419 90 -16 16 -31 26 -35 23z"/>
<path d="M6205 4953 c-47 -56 -214 -93 -420 -93 -188 0 -293 -31 -379 -110
-58 -54 -86 -111 -86 -179 l0 -53 28 29 c54 59 207 93 417 93 140 0 218 15
303 56 108 53 172 142 172 241 0 41 -10 46 -35 16z"/>
<path d="M6306 4814 c-11 -8 -28 -14 -38 -14 -10 0 -26 -15 -37 -37 -27 -53
-87 -108 -146 -135 -48 -22 -61 -23 -295 -24 -254 0 -304 -7 -383 -46 -52 -26
-40 -33 20 -13 74 26 212 30 356 10 79 -11 163 -16 229 -13 93 3 111 7 171 36
79 39 122 87 143 161 20 65 10 98 -20 75z"/>
<path d="M440 4779 c0 -95 86 -189 204 -224 66 -20 218 -19 353 1 127 19 286
14 352 -10 24 -9 46 -14 48 -12 10 9 -45 36 -107 53 -55 15 -101 17 -285 15
-174 -1 -231 1 -274 14 -92 26 -161 82 -190 152 -9 20 -21 31 -39 35 -15 2
-35 8 -44 12 -16 6 -18 1 -18 -36z"/>
<path d="M1660 4255 c0 -2 309 -387 686 -856 l685 -851 -58 -71 c-170 -207
-1373 -1707 -1373 -1711 0 -3 204 -6 453 -6 l452 0 490 610 c270 335 493 609
496 609 3 1 228 -273 500 -609 l494 -610 473 0 c259 0 472 2 472 5 0 5 -1279
1594 -1421 1766 l-38 46 669 831 c367 457 671 836 675 841 4 8 -132 11 -448
11 l-455 0 -447 -559 -448 -560 -96 119 c-53 65 -256 317 -451 559 l-355 441
-477 0 c-263 0 -478 -2 -478 -5z"/>
</g>
</svg>
